# Blender v2.61 (sub 0) OBJ File: 'fighter.blend'
# www.blender.org
mtllib fighter.mtl
o Cube
v 0.515436 -0.383725 -2.367667
v 0.515436 -0.383725 1.194133
v 0.515437 0.383725 -2.367666
v 0.515436 0.383725 1.194133
v 1.515435 0.183725 1.194133
v 1.515437 0.183725 -1.867666
v 1.515436 -0.183724 1.194133
v 1.515436 -0.183724 -1.867667
v 1.265436 -0.091863 2.469133
v 1.265435 0.091861 2.469133
v 0.765436 0.191861 2.619133
v 0.765436 -0.191863 2.619133
v 1.515436 0.183725 -0.336767
v 1.515436 -0.183724 -0.336767
v 1.715436 -0.091862 -1.236767
v 1.715436 0.091862 -1.236767
v 1.715436 -0.091862 -1.667667
v 1.715437 0.091862 -1.667666
v -1.715437 -0.091862 -1.667666
v -1.715436 0.091863 -1.667667
v -1.715436 -0.091862 -1.236767
v -1.715436 0.091863 -1.236767
v -1.515436 0.183725 -0.336767
v -1.515436 -0.183724 -0.336767
v -0.765436 0.191863 2.619133
v -0.765436 -0.191862 2.619133
v -1.265436 -0.091861 2.469133
v -1.265436 0.091863 2.469133
v -1.515436 0.183725 -1.867667
v -1.515436 0.183725 1.194133
v -1.515437 -0.183724 -1.867666
v -1.515436 -0.183724 1.194133
v -0.515436 -0.383725 1.194133
v -0.515437 -0.383725 -2.367666
v -0.515436 0.383724 -2.367667
v -0.515436 0.383724 1.194133
vt 0.286658 0.198128
vt 0.285371 0.620653
vt 0.163048 0.620281
vt 0.164334 0.197755
vt 0.751741 0.197465
vt 0.629418 0.197838
vt 0.630705 0.620363
vt 0.753027 0.619991
vt 0.752985 0.810747
vt 0.752300 0.901016
vt 0.631046 0.900095
vt 0.631732 0.809826
vt 0.628937 0.181599
vt 0.628666 0.087431
vt 0.755158 0.087067
vt 0.755428 0.181235
vt 0.506163 0.157412
vt 0.506033 0.112324
vt 0.436083 0.620737
vt 0.479421 0.620604
vt 0.469056 0.773432
vt 0.447386 0.773498
vt 0.404029 0.621573
vt 0.373903 0.772989
vt 0.314519 0.790323
vt 0.871689 0.620188
vt 0.783209 0.789479
vt 0.842485 0.771784
vt 0.922986 0.834606
vt 0.922643 0.879741
vt 0.984297 0.846835
vt 0.984133 0.868445
vt 0.871136 0.438582
vt 0.870583 0.256976
vt 0.404582 0.439967
vt 0.405135 0.258361
vt 0.478871 0.441284
vt 0.435533 0.441417
vt 0.446036 0.333205
vt 0.467705 0.333138
vt 0.428794 0.282415
vt 0.428638 0.333532
vt 0.894543 0.332002
vt 0.894388 0.280886
vt 0.481590 0.146210
vt 0.481525 0.123667
vt 0.467550 0.282665
vt 0.445881 0.282732
vt 0.931730 0.281531
vt 0.931885 0.332004
vt 0.910215 0.332070
vt 0.910061 0.281597
vt 0.878061 0.156342
vt 0.877932 0.111254
vt 0.902505 0.122456
vt 0.902570 0.144999
vt 0.045492 0.257266
vt 0.044939 0.438872
vt 0.021532 0.332292
vt 0.021687 0.281176
vt 0.511493 0.439677
vt 0.510940 0.258072
vt 0.487281 0.282126
vt 0.487437 0.333242
vt 0.943051 0.440150
vt 0.899713 0.440283
vt 0.943601 0.619470
vt 0.900263 0.619603
vt 0.461389 0.831102
vt 0.461046 0.876236
vt 0.399734 0.864008
vt 0.399898 0.842398
vt 0.044386 0.620478
vt 0.132867 0.789770
vt 0.073590 0.772074
vt 0.512046 0.621283
vt 0.542173 0.772699
vt 0.601556 0.790033
vt 0.933235 0.772297
vt 0.911566 0.772364
vn 0.000001 -1.000000 -0.000000
vn -0.000001 1.000000 -0.000000
vn -0.000000 0.000000 1.000000
vn -0.000000 0.000000 -1.000000
vn 0.447214 0.000000 -0.894427
vn 0.981314 0.000002 0.192415
vn 0.204913 -0.973421 0.102289
vn 0.204913 0.973420 0.102291
vn -0.984957 -0.000001 0.172799
vn 0.287348 0.000000 0.957826
vn 0.196116 0.980581 0.000000
vn 0.196116 -0.980581 0.000000
vn 1.000000 0.000001 0.000000
vn 0.976187 0.000001 0.216930
vn 0.417389 -0.908728 0.000000
vn 0.417390 0.908728 0.000000
vn 0.707107 -0.000001 -0.707107
vn 1.000000 -0.000001 0.000001
vn -1.000000 0.000003 0.000001
vn -0.707107 0.000002 -0.707107
vn -0.417391 -0.908727 0.000000
vn -0.417388 0.908729 0.000000
vn -0.976187 0.000001 0.216931
vn -1.000000 0.000000 0.000000
vn -0.196115 0.980581 0.000000
vn -0.196117 -0.980581 0.000000
vn -0.287348 0.000000 0.957826
vn 0.984957 -0.000000 0.172799
vn -0.204914 -0.973420 0.102291
vn -0.204912 0.973421 0.102289
vn -0.981314 -0.000000 0.192415
vn -0.447214 0.000001 -0.894427
usemtl Material_fighter.png
s off
f 1/1/1 2/2/1 33/3/1
f 1/1/1 33/3/1 34/4/1
f 3/5/2 35/6/2 36/7/2
f 3/5/2 36/7/2 4/8/2
f 2/9/3 4/10/3 36/11/3
f 2/9/3 36/11/3 33/12/3
f 3/13/4 1/14/4 34/15/4
f 3/13/4 34/15/4 35/16/4
f 1/14/5 3/13/5 6/17/5
f 1/14/5 6/17/5 8/18/5
f 7/19/6 5/20/6 10/21/6
f 7/19/6 10/21/6 9/22/6
f 2/2/7 7/23/7 9/24/7
f 2/2/7 9/24/7 12/25/7
f 5/26/8 4/8/8 11/27/8
f 5/26/8 11/27/8 10/28/8
f 4/10/9 2/9/9 12/29/9
f 4/10/9 12/29/9 11/30/9
f 11/30/10 12/29/10 9/31/10
f 11/30/10 9/31/10 10/32/10
f 13/33/11 6/34/11 3/5/11
f 14/35/12 1/1/12 8/36/12
f 13/37/13 5/20/13 7/19/13
f 13/37/13 7/19/13 14/38/13
f 13/37/14 14/38/14 15/39/14
f 13/37/14 15/39/14 16/40/14
f 14/35/15 8/36/15 17/41/15
f 14/35/15 17/41/15 15/42/15
f 6/34/16 13/33/16 16/43/16
f 6/34/16 16/43/16 18/44/16
f 8/18/17 6/17/17 18/45/17
f 8/18/17 18/45/17 17/46/17
f 18/47/18 16/40/18 15/39/18
f 18/47/18 15/39/18 17/48/18
f 19/49/19 21/50/19 22/51/19
f 19/49/19 22/51/19 20/52/19
f 29/53/20 31/54/20 19/55/20
f 29/53/20 19/55/20 20/56/20
f 31/57/21 24/58/21 21/59/21
f 31/57/21 21/59/21 19/60/21
f 23/61/22 29/62/22 20/63/22
f 23/61/22 20/63/22 22/64/22
f 24/65/23 23/66/23 22/51/23
f 24/65/23 22/51/23 21/50/23
f 24/65/24 32/67/24 30/68/24
f 24/65/24 30/68/24 23/66/24
f 29/62/25 23/61/25 35/6/25
f 24/58/26 31/57/26 34/4/26
f 26/69/27 25/70/27 28/71/27
f 26/69/27 28/71/27 27/72/27
f 33/12/28 36/11/28 25/70/28
f 33/12/28 25/70/28 26/69/28
f 32/73/29 33/3/29 26/74/29
f 32/73/29 26/74/29 27/75/29
f 36/7/30 30/76/30 28/77/30
f 36/7/30 28/77/30 25/78/30
f 30/68/31 32/67/31 27/79/31
f 30/68/31 27/79/31 28/80/31
f 35/16/32 34/15/32 31/54/32
f 35/16/32 31/54/32 29/53/32
f 3/5/11 4/8/11 5/26/11
f 3/5/11 5/26/11 13/33/11
f 1/1/12 14/35/12 7/23/12
f 1/1/12 7/23/12 2/2/12
f 32/73/26 24/58/26 34/4/26
f 32/73/26 34/4/26 33/3/26
f 30/76/25 36/7/25 35/6/25
f 30/76/25 35/6/25 23/61/25
