# Blender v2.61 (sub 0) OBJ File: ''
# www.blender.org
mtllib cube.mtl
o Cube
v 1.000000 -1.000000 -1.000000
v 1.000000 -1.000000 1.000000
v -1.000000 -1.000000 1.000000
v -1.000000 -1.000000 -1.000000
v 1.000000 1.000000 -0.999999
v 0.999999 1.000000 1.000001
v -1.000000 1.000000 1.000000
v -1.000000 1.000000 -1.000000
vt 0.000000 0.663943
vt 0.332314 0.662923
vt 0.333333 0.995237
vt 0.001019 0.996257
vt 1.000000 0.330609
vt 0.998981 0.662923
vt 0.666667 0.661904
vt 0.667686 0.329590
vt 1.000000 0.995237
vt 0.667686 0.996257
vt 0.666667 0.663943
vt 0.334353 0.996257
vt 0.333333 0.663943
vt 0.665647 0.662923
vt 0.666667 0.995237
vt 0.333333 0.661904
vt 0.001020 0.662923
vt 0.000000 0.330609
vt 0.332314 0.329590
vt 0.333333 0.330609
vt 0.665647 0.329590
vt 0.334353 0.662923
vn 0.000000 -1.000000 0.000000
vn 0.000000 1.000000 0.000000
vn 1.000000 0.000000 0.000000
vn -0.000000 -0.000000 1.000000
vn -1.000000 -0.000000 -0.000000
vn 0.000000 0.000000 -1.000000
usemtl Material_cube.png
s off
f 1/1/1 2/2/1 3/3/1
f 1/1/1 3/3/1 4/4/1
f 5/5/2 8/6/2 7/7/2
f 5/5/2 7/7/2 6/8/2
f 1/6/3 5/9/3 6/10/3
f 1/6/3 6/10/3 2/11/3
f 2/12/4 6/13/4 7/14/4
f 2/12/4 7/14/4 3/15/4
f 3/16/5 7/17/5 8/18/5
f 3/16/5 8/18/5 4/19/5
f 5/20/6 1/21/6 4/7/6
f 5/20/6 4/7/6 8/22/6
